<svg width="32" height="32" viewBox="0 0 32 32" fill="none" xmlns="http://www.w3.org/2000/svg">
<path d="M13.9759 6.31871C15.0819 5.1718 16.9191 5.17193 18.0252 6.31871L25.4796 14.0479C26.5301 15.1374 26.5301 16.8626 25.4796 17.9521L18.0252 25.6813C16.9191 26.8281 15.0819 26.8282 13.9759 25.6813L6.52578 17.9521C5.47553 16.8627 5.47553 15.1373 6.52578 14.0479L13.9759 6.31871Z" stroke="#D29A38" stroke-width="1.6" stroke-linejoin="round"/>
<path d="M12.2118 16.6885C12.0326 16.3045 12.031 15.8611 12.2075 15.4757L14.6893 10.0563C15.2042 8.93181 16.802 8.9318 17.317 10.0563L19.7988 15.4757C19.9752 15.8611 19.9736 16.3045 19.7944 16.6885L17.3126 22.0066C16.7937 23.1186 15.2125 23.1186 14.6936 22.0066L12.2118 16.6885Z" fill="#D29A38"/>
</svg>
