<svg width="32" height="32" viewBox="0 0 32 32" fill="none" xmlns="http://www.w3.org/2000/svg">
<path d="M22.7087 8.18192C20.9121 7.71312 19.3907 7.06128 18.2532 6.48062C16.8654 5.77218 15.1351 5.77218 13.7473 6.48062C12.6099 7.06128 11.0884 7.71312 9.29185 8.18191C7.64173 8.6125 6.28152 9.96962 6.36485 11.6729C6.81862 20.9483 12.4057 24.9903 14.8584 26.3258C15.579 26.7182 16.4215 26.7182 17.1421 26.3258C19.5948 24.9903 25.1819 20.9483 25.6357 11.6729C25.719 9.96962 24.3588 8.6125 22.7087 8.18192Z" stroke="#D29A38" stroke-width="1.6"/>
<path d="M22.8679 10.0632C20.6993 9.71131 18.8935 8.9531 17.6788 8.32079C16.9613 7.94734 16 8.46101 16 9.26985V23.2938C16 23.9744 16.6626 24.4165 17.2487 24.0704C19.4887 22.7478 23.9389 19.0926 23.7244 11.0036C23.7117 10.5263 23.3392 10.1397 22.8679 10.0632Z" fill="#D29A38"/>
</svg>
