<svg width="32" height="32" viewBox="0 0 32 32" fill="none" xmlns="http://www.w3.org/2000/svg">
<path d="M15.2061 5.52148C15.615 4.80166 16.6528 4.80143 17.0615 5.52148L23.3125 16.5371C23.4984 16.8646 23.4984 17.2658 23.3115 17.5928L19.043 25.0625C18.8531 25.3947 18.4998 25.5995 18.1172 25.5996H14.1504C13.7676 25.5996 13.4135 25.3948 13.2236 25.0625L8.95508 17.5928C8.76829 17.2658 8.76825 16.8646 8.9541 16.5371L15.2061 5.52148Z" stroke="#D29A38" stroke-width="1.6"/>
<path d="M16.4639 22.9146C16.2596 23.2751 15.7402 23.2751 15.5359 22.9146L11.9178 16.5297C11.7163 16.1741 11.9731 15.7334 12.3818 15.7334L19.618 15.7334C20.0266 15.7334 20.2835 16.1741 20.082 16.5297L16.4639 22.9146Z" fill="#D29A38"/>
</svg>
