<svg width="32" height="24" viewBox="0 0 32 24" fill="none" xmlns="http://www.w3.org/2000/svg">
<path d="M11.8181 17.8258C11.8181 14.3635 14.909 12.1816 14.909 12.1816C14.909 12.1816 11.8181 9.63619 11.8181 6.17383M20.1818 17.8258C20.1818 14.3635 17.0909 12.1816 17.0909 12.1816C17.0909 12.1816 20.1818 9.63619 20.1818 6.17383" stroke="#3F6BB3" stroke-width="0.9" stroke-linecap="round" stroke-linejoin="round"/>
<path d="M15.3931 13.451C15.6818 13.0197 16.3163 13.0209 16.6034 13.4533L18.8715 16.8694C19.1925 17.3528 18.8459 17.999 18.2656 17.999H13.7108C13.1293 17.999 12.7829 17.3504 13.1064 16.8671L15.3931 13.451Z" fill="#3F6BB3"/>
<path d="M15.3832 10.8311C15.668 11.2869 16.3318 11.2869 16.6166 10.8311L18.9408 7.11242C19.2435 6.62802 18.8953 5.99969 18.3241 5.99969H13.6757C13.1045 5.99969 12.7562 6.62802 13.059 7.11242L15.3832 10.8311Z" fill="#3F6BB3"/>
</svg>
