<svg width="32" height="32" viewBox="0 0 32 32" fill="none" xmlns="http://www.w3.org/2000/svg">
<path d="M7.55017 17.5471C7.31947 17.0857 9.51117 13.9715 9.85723 13.1639C10.2033 12.3563 9.85723 8.31888 13.2025 6.47324C16.5477 4.6276 19.648 5.55051 20.8157 6.01188C21.9834 6.47324 24.9756 7.92189 24.3918 12.5927C23.8079 17.2634 21.6915 17.0445 21.5455 18.6501C21.3996 20.2556 23.0052 23.7588 22.7862 24.1966C22.5673 24.6345 15.6341 26.8969 15.1962 26.605C14.7583 26.3131 14.5867 22.8534 14.5867 22.8534C14.5867 22.8534 12.5103 23.5455 10.6647 22.6227C9.62653 21.4691 10.2033 18.5853 9.85723 18.2393C9.51116 17.8932 7.78088 18.0086 7.55017 17.5471Z" stroke="#D29A38" stroke-width="1.6" stroke-linejoin="round"/>
<path d="M16.8744 7.4126C15.7068 9.09116 14.3202 10.332 12.4956 10.9887C14.1012 12.9593 14.6121 14.6378 14.904 17.9949C16.8744 14.9297 18.772 14.6378 21.4723 14.6378C21.1074 12.8862 21.8372 11.8646 21.8372 9.6021C20.0127 10.259 18.3341 9.09116 16.8744 7.4126Z" fill="#D29A38"/>
</svg>
