<svg width="32" height="32" viewBox="0 0 32 32" fill="none" xmlns="http://www.w3.org/2000/svg">
<mask id="path-1-inside-1_2039_137" fill="white">
<path d="M14.9814 6.2401C15.5649 5.82746 16.3431 5.83042 16.9236 6.2473C19.972 8.43665 21.9587 12.0104 21.9587 16.05C21.9587 16.0705 21.9688 16.0894 21.9867 16.0994C22.0022 16.1079 22.0176 16.1163 22.0329 16.1252C25.5136 18.1347 27.6118 21.6168 27.9992 25.3302C28.0735 26.0424 27.6884 26.7207 27.0388 27.0218C23.5975 28.6168 19.461 28.5708 15.9265 26.5304C15.9082 26.5199 15.8859 26.5194 15.8675 26.5298C14.1061 27.5362 12.0683 28.1144 9.89424 28.1144C8.14228 28.1144 6.47836 27.7392 4.9764 27.067C4.31893 26.7727 3.92476 26.0934 3.99546 25.3766C4.15863 23.722 4.66703 22.0748 5.55244 20.5412C6.63594 18.6645 8.14849 17.1915 9.8934 16.1696C9.89392 16.1693 9.89424 16.1687 9.89424 16.1681C9.87746 14.0899 10.3962 11.98 11.5104 10.05C12.4093 8.4931 13.604 7.21425 14.9814 6.2401Z"/>
</mask>
<path d="M21.9587 16.05L23.5587 16.05V16.05H21.9587ZM22.0329 16.1252L22.8329 14.7395L22.8329 14.7395L22.0329 16.1252ZM15.9265 26.5304L15.1265 27.9161L15.1265 27.9161L15.9265 26.5304ZM9.89424 28.1144V29.7144H9.89427L9.89424 28.1144ZM5.55244 20.5412L4.1668 19.7412L4.1668 19.7412L5.55244 20.5412ZM9.89424 16.1681H11.4943L11.4942 16.1552L9.89424 16.1681ZM11.5104 10.05L10.1248 9.24995L10.1248 9.25L11.5104 10.05ZM9.8934 16.1696L10.7019 17.5503L9.8934 16.1696ZM15.8675 26.5299L15.0738 25.1406L15.8675 26.5299ZM27.9992 25.3302L26.4079 25.4963L27.9992 25.3302ZM21.9867 16.0994L22.7593 14.6983L21.9867 16.0994ZM16.9236 6.2473L15.9902 7.54687L16.9236 6.2473ZM14.9814 6.2401L15.9053 7.54643L14.9814 6.2401ZM16.9236 6.2473L15.9902 7.54687C18.6386 9.44893 20.3587 12.548 20.3587 16.05H21.9587H23.5587C23.5587 11.4728 21.3053 7.42436 17.8569 4.94774L16.9236 6.2473ZM21.9867 16.0994L21.2141 17.5004C21.2162 17.5016 21.2184 17.5028 21.2202 17.5038C21.2221 17.5048 21.2237 17.5057 21.2252 17.5066C21.2283 17.5083 21.2304 17.5094 21.232 17.5104C21.2354 17.5122 21.2352 17.5121 21.2329 17.5108L22.0329 16.1252L22.8329 14.7395C22.8008 14.721 22.769 14.7036 22.7593 14.6983L21.9867 16.0994ZM22.0329 16.1252L21.2329 17.5108C24.2504 19.253 26.0713 22.2702 26.4079 25.4963L27.9992 25.3302L29.5906 25.1642C29.1523 20.9634 26.7767 17.0165 22.8329 14.7395L22.0329 16.1252ZM27.0388 27.0218L26.3659 25.5701C23.376 26.9559 19.7903 26.9135 16.7264 25.1448L15.9265 26.5304L15.1265 27.9161C19.1317 30.2282 23.8189 30.2777 27.7116 28.4734L27.0388 27.0218ZM15.8675 26.5299L15.0738 25.1406C13.5461 26.0134 11.7807 26.5144 9.89421 26.5144L9.89424 28.1144L9.89427 29.7144C12.3558 29.7144 14.6661 29.0589 16.6612 27.9191L15.8675 26.5299ZM9.89424 28.1144V26.5144C8.37288 26.5144 6.9313 26.189 5.63006 25.6066L4.9764 27.067L4.32274 28.5274C6.02542 29.2895 7.91168 29.7144 9.89424 29.7144V28.1144ZM3.99546 25.3766L5.58773 25.5336C5.72911 24.1001 6.16924 22.6729 6.93808 21.3412L5.55244 20.5412L4.1668 19.7412C3.16482 21.4767 2.58816 23.3438 2.40318 25.2196L3.99546 25.3766ZM5.55244 20.5412L6.93808 21.3412C7.87861 19.7122 9.18913 18.4362 10.7019 17.5503L9.8934 16.1696L9.08485 14.7889C7.10785 15.9467 5.39327 17.6169 4.1668 19.7412L5.55244 20.5412ZM9.89424 16.1681L11.4942 16.1552C11.4796 14.3536 11.9287 12.5256 12.8961 10.8499L11.5104 10.05L10.1248 9.25C8.86367 11.4344 8.27528 13.8263 8.29429 16.1811L9.89424 16.1681ZM11.5104 10.05L12.8961 10.85C13.6766 9.49818 14.7118 8.39045 15.9053 7.54643L14.9814 6.2401L14.0576 4.93377C12.4961 6.03804 11.1421 7.48803 10.1248 9.24995L11.5104 10.05ZM9.8934 16.1696L10.7019 17.5503C11.1931 17.2627 11.4942 16.7364 11.4942 16.1681H9.89424H8.29424C8.29424 15.6011 8.59476 15.0759 9.08485 14.7889L9.8934 16.1696ZM4.9764 27.067L5.63006 25.6066C5.60079 25.5935 5.58458 25.5656 5.58773 25.5336L3.99546 25.3766L2.40318 25.2196C2.26495 26.6213 3.03708 27.9519 4.32274 28.5274L4.9764 27.067ZM15.9265 26.5304L16.7265 25.1448C16.2397 24.8638 15.6102 24.8341 15.0738 25.1406L15.8675 26.5299L16.6612 27.9191C16.1615 28.2046 15.5766 28.176 15.1265 27.9161L15.9265 26.5304ZM27.9992 25.3302L26.4079 25.4963C26.4112 25.5283 26.3952 25.5566 26.3659 25.5701L27.0388 27.0218L27.7116 28.4734C28.9817 27.8847 29.7359 26.5565 29.5906 25.1642L27.9992 25.3302ZM21.9587 16.05L20.3587 16.0499C20.3587 16.5909 20.6332 17.1801 21.2141 17.5004L21.9867 16.0994L22.7593 14.6983C23.3043 14.9988 23.5587 15.5501 23.5587 16.05L21.9587 16.05ZM16.9236 6.2473L17.8569 4.94774C16.7224 4.13292 15.1984 4.12695 14.0576 4.93377L14.9814 6.2401L15.9053 7.54643C15.9314 7.52796 15.9639 7.52792 15.9902 7.54687L16.9236 6.2473Z" fill="#D29A38" mask="url(#path-1-inside-1_2039_137)"/>
<path d="M14.8425 15.9175C15.3557 15.0286 16.6387 15.0286 17.1519 15.9175L19.75 20.4175C20.2632 21.3064 19.6217 22.4175 18.5953 22.4175H13.3992C12.3728 22.4175 11.7313 21.3064 12.2445 20.4175L14.8425 15.9175Z" fill="#D29A38"/>
</svg>
